<?xml version="1.0" encoding="UTF-8"?>
<svg width="463px" height="37px" viewBox="0 0 463 37" version="1.1" xmlns="http://www.w3.org/2000/svg" xmlns:xlink="http://www.w3.org/1999/xlink">
    <!-- Generator: Sketch 49.1 (51147) - http://www.bohemiancoding.com/sketch -->
    <title>Group</title>
    <desc>Created with Sketch.</desc>
    <defs></defs>
    <g id="Page-1" stroke="none" stroke-width="1" fill="none" fill-rule="evenodd">
        <g id="Group">
            <path d="M24.84,36 L17.976,36 L17.976,22.272 L7.704,22.272 L7.704,36 L0.84,36 L0.84,1.68 L7.704,1.68 L7.704,15.408 L17.976,15.408 L17.976,1.68 L24.84,1.68 L24.84,36 Z M50.328,36 L32.568,36 L32.568,1.68 L49.752,1.68 L49.752,8.544 L39.432,8.544 L39.432,15.408 L48.456,15.408 L48.456,22.272 L39.432,22.272 L39.432,29.136 L50.328,29.136 L50.328,36 Z M53.688,36 L68.136,0.432 L68.856,0.432 L83.304,36 L75.576,36 L74.184,32.304 L62.808,32.304 L61.464,36 L53.688,36 Z M65.304,25.872 L71.64,25.872 L68.52,16.944 L65.304,25.872 Z M98.328,1.68 C121.176,1.68 121.176,36 98.328,36 L88.104,36 L88.104,1.68 L98.328,1.68 Z M98.328,8.544 L94.968,8.544 L94.968,29.136 L98.328,29.136 C111.672,29.136 111.672,8.544 98.328,8.544 Z M121.896,1.68 L128.76,1.68 L128.76,29.136 L139.656,29.136 L139.656,36 L121.896,36 L121.896,1.68 Z M163.32,36 L145.56,36 L145.56,1.68 L162.744,1.68 L162.744,8.544 L152.424,8.544 L152.424,15.408 L161.448,15.408 L161.448,22.272 L152.424,22.272 L152.424,29.136 L163.32,29.136 L163.32,36 Z M232.584,33.792 L233.448,26.592 C237.384,29.376 241.656,29.472 243.24,29.328 C245.256,29.184 246.984,27.744 246.792,25.872 C246.648,23.904 245.16,23.04 243.24,22.368 C237.864,20.4 233.064,17.664 233.064,11.904 C233.064,6.144 237.048,1.728 242.76,1.44 C244.536,1.344 246.888,1.344 251.304,2.88 L250.44,9.504 C246.648,7.968 244.488,8.016 243.432,8.064 C240.984,8.208 239.88,9.984 240.024,11.904 C240.216,13.824 241.896,14.688 243.864,15.36 C249.192,17.328 253.8,20.4 253.8,25.872 C253.8,31.584 249.864,35.952 243.432,36.288 C241.512,36.432 237.24,36.192 232.584,33.792 Z M283.56,36 L276.696,36 L276.696,22.272 L266.424,22.272 L266.424,36 L259.56,36 L259.56,1.68 L266.424,1.68 L266.424,15.408 L276.696,15.408 L276.696,1.68 L283.56,1.68 L283.56,36 Z M307.8,36.48 C331.416,36.48 331.416,1.104 307.8,1.104 C284.184,1.104 284.184,36.48 307.8,36.48 Z M307.8,29.376 C321.528,29.376 321.528,8.16 307.8,8.16 C294.072,8.16 294.072,29.376 307.8,29.376 Z M338.808,36 L331.944,36 L331.944,1.728 L345.432,1.728 C358.776,1.728 358.728,22.896 345.432,22.896 L338.808,22.896 L338.808,36 Z M338.808,16.224 L344.856,16.224 C349.464,16.224 349.464,8.544 344.856,8.544 L338.808,8.544 L338.808,16.224 Z M367.752,36 L360.888,36 L360.888,1.728 L374.376,1.728 C387.72,1.728 387.672,22.896 374.376,22.896 L367.752,22.896 L367.752,36 Z M367.752,16.224 L373.8,16.224 C378.408,16.224 378.408,8.544 373.8,8.544 L367.752,8.544 L367.752,16.224 Z M396.696,36 L389.832,36 L389.832,1.68 L396.696,1.68 L396.696,36 Z M411.288,17.328 L411.288,36 L404.424,36 L404.424,0.96 L406.248,0.96 L423.576,21.12 L423.576,1.728 L430.488,1.728 L430.488,36.72 L428.664,36.72 L411.288,17.328 Z M462.984,33.888 C460.344,35.376 457.368,36.192 454.104,36.192 C431.448,36.192 430.296,2.256 454.104,1.392 C458.184,1.248 461.496,2.448 462.12,2.64 L461.304,9.6 C459.96,9.024 457.752,8.256 454.104,8.352 C440.232,8.832 440.856,29.328 454.104,29.328 C454.728,29.328 455.4,29.232 456.024,29.136 L456.024,18.816 L462.984,18.816 L462.984,33.888 Z" id="HEADLESS-SHOPPING" fill="#FFFFFF"></path>
            <path d="M168.168,33.792 L169.032,26.592 C172.968,29.376 177.24,29.472 178.824,29.328 C180.84,29.184 182.568,27.744 182.376,25.872 C182.232,23.904 180.744,23.04 178.824,22.368 C173.448,20.4 168.648,17.664 168.648,11.904 C168.648,6.144 172.632,1.728 178.344,1.44 C180.12,1.344 182.472,1.344 186.888,2.88 L186.024,9.504 C182.232,7.968 180.072,8.016 179.016,8.064 C176.568,8.208 175.464,9.984 175.608,11.904 C175.8,13.824 177.48,14.688 179.448,15.36 C184.776,17.328 189.384,20.4 189.384,25.872 C189.384,31.584 185.448,35.952 179.016,36.288 C177.096,36.432 172.824,36.192 168.168,33.792 Z" id="Path" fill="#EE7848"></path>
            <path d="M193.56,33.792 L194.424,26.592 C198.36,29.376 202.632,29.472 204.216,29.328 C206.232,29.184 207.96,27.744 207.768,25.872 C207.624,23.904 206.136,23.04 204.216,22.368 C198.84,20.4 194.04,17.664 194.04,11.904 C194.04,6.144 198.024,1.728 203.736,1.44 C205.512,1.344 207.864,1.344 212.28,2.88 L211.416,9.504 C207.624,7.968 205.464,8.016 204.408,8.064 C201.96,8.208 200.856,9.984 201,11.904 C201.192,13.824 202.872,14.688 204.84,15.36 C210.168,17.328 214.776,20.4 214.776,25.872 C214.776,31.584 210.84,35.952 204.408,36.288 C202.488,36.432 198.216,36.192 193.56,33.792 Z" id="Path" fill="#EE7848"></path>
        </g>
    </g>
</svg>